<svg width="1415" height="129" viewBox="0 0 1415 129" fill="none" xmlns="http://www.w3.org/2000/svg" xmlns:xlink="http://www.w3.org/1999/xlink">
<g filter="url(#filter0_g_328_612)">
<rect y="0.199219" width="1415" height="36" fill="url(#pattern0_328_612)"/>
</g>
<g filter="url(#filter1_g_328_612)">
<rect y="41.1992" width="1415" height="80" fill="url(#pattern1_328_612)"/>
</g>
<g filter="url(#filter2_g_328_612)">
<line y1="126.199" x2="1416" y2="126.199" stroke="#AC2525" stroke-width="4"/>
</g>
<g filter="url(#filter3_g_328_612)">
<line y1="38.1992" x2="1416" y2="38.1992" stroke="#AC2525" stroke-width="4"/>
</g>
<defs>
<filter id="filter0_g_328_612" x="-0.2" y="-0.000781253" width="1415.4" height="36.4" filterUnits="userSpaceOnUse" color-interpolation-filters="sRGB">
<feFlood flood-opacity="0" result="BackgroundImageFix"/>
<feBlend mode="normal" in="SourceGraphic" in2="BackgroundImageFix" result="shape"/>
<feTurbulence type="fractalNoise" baseFrequency="0.99900001287460327 0.99900001287460327" numOctaves="3" seed="1005" />
<feDisplacementMap in="shape" scale="0.40000000596046448" xChannelSelector="R" yChannelSelector="G" result="displacedImage" width="100%" height="100%" />
<feMerge result="effect1_texture_328_612">
<feMergeNode in="displacedImage"/>
</feMerge>
</filter>
<filter id="filter1_g_328_612" x="-0.5" y="40.6992" width="1416" height="81" filterUnits="userSpaceOnUse" color-interpolation-filters="sRGB">
<feFlood flood-opacity="0" result="BackgroundImageFix"/>
<feBlend mode="normal" in="SourceGraphic" in2="BackgroundImageFix" result="shape"/>
<feTurbulence type="fractalNoise" baseFrequency="0.99900001287460327 0.99900001287460327" numOctaves="3" seed="5741" result="displacementX" />
<feTurbulence type="fractalNoise" baseFrequency="0.99900001287460327 0.99900001287460327" numOctaves="3" seed="5742" result="displacementY" />
<feColorMatrix in="displacementX" type="matrix" values="0 0 0 1 0  0 0 0 0 0  0 0 0 0 0  0 0 0 0 1" result="displacementXRed" />
<feColorMatrix in="displacementY" type="matrix" values="0 0 0 0 0  0 0 0 1 0  0 0 0 0 0  0 0 0 0 1" />
<feComposite in="displacementXRed" operator="arithmetic" k1="0" k2="1" k3="1" k4="0"/>
<feDisplacementMap in="shape" scale="1" xChannelSelector="R" yChannelSelector="G" width="100%" height="100%" />
<feColorMatrix type="matrix" values="0 0 0 0 0  0 0 0 0 0  0 0 0 0 0  0 0 0 1 0" />
<feComponentTransfer result="sourceDisplacedAlpha">
<feFuncA type="gamma" exponent="0.2" />
</feComponentTransfer>
<feColorMatrix in="shape" type="matrix" values="0 0 0 0 0  0 0 0 0 0  0 0 0 0 0  0 0 0 1 0" />
<feComponentTransfer result="inputSourceAlpha">
<feFuncA type="gamma" exponent="0.2" />
</feComponentTransfer>
<feComposite in="sourceDisplacedAlpha" operator="arithmetic" k1="1" k2="0" k3="0" k4="0" result="displacementAlphasMultiplied"/>
<feComposite in="displacementAlphasMultiplied"  operator="arithmetic" k1="0" k2="0" k3="-0.5" k4="0.5" result="centeringAdjustment"/>
<feComposite in="displacementX" in2="displacementAlphasMultiplied" operator="arithmetic" k1="1" k2="0" k3="0" k4="0" />
<feComposite in="centeringAdjustment" operator="arithmetic" k1="0" k2="1" k3="1" k4="0" />
<feColorMatrix  type="matrix" values="0 0 0 1 0  0 0 0 0 0  0 0 0 0 0  0 0 0 0 1" result="displacementXFinal" />
<feComposite in="displacementY" in2="displacementAlphasMultiplied" operator="arithmetic" k1="1" k2="0" k3="0" k4="0" />
<feComposite in="centeringAdjustment" operator="arithmetic" k1="0" k2="1" k3="1" k4="0" />
<feColorMatrix  type="matrix" values="0 0 0 0 0  0 0 0 1 0  0 0 0 0 0  0 0 0 0 1" result="displacementYFinal" />
<feComposite in="displacementXFinal" in2="displacementYFinal" operator="arithmetic" k1="0" k2="1" k3="1" k4="0" />
<feComposite in2="displacementAlphasMultiplied" operator="in" result="displacementMap" />
<feFlood flood-color="rgb(127, 127, 127)" flood-opacity="1"/>
<feComposite in2="displacementAlphasMultiplied" operator="out" />
<feComposite in2="displacementMap" operator="over" result="displacementMapWithBg"/>
<feDisplacementMap in="shape" scale="1" xChannelSelector="R" yChannelSelector="G" width="100%" height="100%" result="displacedImage" />
<feColorMatrix in="shape" type="matrix" values="1 0 0 0 0  0 1 0 0 0  0 0 1 0 0  0 0 0 127 0" result="imageOpaque" />
<feDisplacementMap in="imageOpaque" in2="displacementMapWithBg" scale="1" xChannelSelector="R" yChannelSelector="G" width="100%" height="100%" result="displacedImageOpaque" />
<feColorMatrix in="displacedImage" type="matrix" values="0 0 0 1 0  0 0 0 0 0  0 0 0 0 0  0 0 0 127 0" result="displacedImageRed" />
<feColorMatrix in="shape" type="matrix" values="0 0 0 1 0  0 0 0 0 0  0 0 0 0 0  0 0 0 127 0" />
<feComposite in="displacedImageRed"  operator="atop" result="transparencyRedMap"/>
<feColorMatrix in="transparencyRedMap" type="matrix" values="0 0 0 0 0  0 0 0 0 0  0 0 0 0 0  1 0 0 0 0" result="transparencyAlphaMap" />
<feComposite in="displacedImageOpaque" in2="imageOpaque" operator="over" />
<feComposite in2="transparencyAlphaMap" operator="in" result="effect1_texture_328_612"/>
</filter>
<filter id="filter2_g_328_612" x="-0.5" y="123.699" width="1417" height="5" filterUnits="userSpaceOnUse" color-interpolation-filters="sRGB">
<feFlood flood-opacity="0" result="BackgroundImageFix"/>
<feBlend mode="normal" in="SourceGraphic" in2="BackgroundImageFix" result="shape"/>
<feTurbulence type="fractalNoise" baseFrequency="0.99900001287460327 0.99900001287460327" numOctaves="3" seed="2048" />
<feDisplacementMap in="shape" scale="1" xChannelSelector="R" yChannelSelector="G" result="displacedImage" width="100%" height="100%" />
<feMerge result="effect1_texture_328_612">
<feMergeNode in="displacedImage"/>
</feMerge>
</filter>
<filter id="filter3_g_328_612" x="-0.5" y="35.6992" width="1417" height="5" filterUnits="userSpaceOnUse" color-interpolation-filters="sRGB">
<feFlood flood-opacity="0" result="BackgroundImageFix"/>
<feBlend mode="normal" in="SourceGraphic" in2="BackgroundImageFix" result="shape"/>
<feTurbulence type="fractalNoise" baseFrequency="0.99900001287460327 0.99900001287460327" numOctaves="3" seed="2048" />
<feDisplacementMap in="shape" scale="1" xChannelSelector="R" yChannelSelector="G" result="displacedImage" width="100%" height="100%" />
<feMerge result="effect1_texture_328_612">
<feMergeNode in="displacedImage"/>
</feMerge>
</filter>
<pattern id="pattern0_328_612" patternUnits="userSpaceOnUse" patternTransform="matrix(42.84 0 0 42.84 692.2 2.89922)" preserveAspectRatio="none" viewBox="0 0 42 42" width="1" height="1">
<g id="pattern0_328_612_inner">
<path d="M0 21.6673L1.77717 30.0006L3.33334 21.6673L1.66667 13.334L0 21.6673Z" fill="#AC2525"/>
<path d="M6.66602 20L8.44319 30L9.99935 20L8.33268 10L6.66602 20Z" fill="#AC2525"/>
<path d="M13.334 18.3327L15.1112 29.9993L16.6673 18.3327L15.0007 6.66602L13.334 18.3327Z" fill="#AC2525"/>
<circle cx="1.66667" cy="10.5553" r="1.66667" fill="#AC2525"/>
<path d="M26.666 21.6673L28.4432 30.0006L29.9994 21.6673L28.3327 13.334L26.666 21.6673Z" fill="#AC2525"/>
<circle cx="28.3327" cy="10.5553" r="1.66667" fill="#AC2525"/>
<circle cx="8.33268" cy="6.11198" r="1.66667" fill="#AC2525"/>
<path d="M20 20L21.7772 30L23.3333 20L21.6667 10L20 20Z" fill="#AC2525"/>
<circle cx="21.6667" cy="6.11198" r="1.66667" fill="#AC2525"/>
<circle cx="15.0007" cy="1.66667" r="1.66667" fill="#AC2525"/>
</g>
</pattern><pattern id="pattern1_328_612" patternUnits="userSpaceOnUse" patternTransform="matrix(152.55 0 0 81 630.55 40.0242)" preserveAspectRatio="none" viewBox="-0.5 -0.5 113 60" width="1" height="1">
<use xlink:href="#pattern1_328_612_inner" transform="translate(-113 -60)"/>
<use xlink:href="#pattern1_328_612_inner" transform="translate(0 -60)"/>
<use xlink:href="#pattern1_328_612_inner" transform="translate(-113 0)"/>
<g id="pattern1_328_612_inner">
<g clip-path="url(#clip0_328_612)">
<rect x="56.5684" y="0.585786" width="99.8858" height="99.8858" rx="2" transform="rotate(45 56.5684 0.585786)" stroke="#AC2525" stroke-width="2"/>
<mask id="path-14-inside-1_328_612" fill="white">
<rect x="56.5684" y="8" width="97.8858" height="97.8858" rx="1" transform="rotate(45 56.5684 8)"/>
</mask>
<rect x="56.5684" y="8" width="97.8858" height="97.8858" rx="1" transform="rotate(45 56.5684 8)" stroke="#AC2525" stroke-width="4" mask="url(#path-14-inside-1_328_612)"/>
<g clip-path="url(#clip1_328_612)">
<path d="M57 56.5C61.173 56.5 64.5 59.6639 64.5 63.5C64.5 67.3361 61.173 70.5 57 70.5C52.827 70.5 49.5 67.3361 49.5 63.5C49.5 59.6639 52.827 56.5 57 56.5Z" fill="#AC2525" stroke="#AC2525"/>
<path d="M56.625 59L49.7975 41.0119C49.3591 39.8568 49.2745 38.5974 49.5544 37.394C51.2959 29.908 61.9541 29.908 63.6956 37.394C63.9755 38.5974 63.8909 39.8568 63.4525 41.0119L56.625 59Z" fill="#AC2525"/>
<path d="M57.4315 58.9998L62.8357 46.028C63.4625 44.5234 64.6685 43.3343 66.1818 42.7288L66.6585 42.5381C69.765 41.2951 72.9875 44.0567 72.2349 47.3169C71.8366 49.0422 70.7748 50.5411 69.2794 51.4891L57.4315 58.9998Z" fill="#AC2525"/>
<path d="M58.6246 59.0175L72.1254 50.5991C73.4246 49.789 74.9784 49.4903 76.4854 49.7611L77.1702 49.8842C80.0237 50.397 81.4205 53.6627 79.8205 56.0804C78.6067 57.9145 76.5539 59.0175 74.3545 59.0175L58.6246 59.0175Z" fill="#AC2525"/>
<path d="M55.6254 59.0004L50.5667 46.102C49.9596 44.554 48.7397 43.3258 47.1959 42.7081L46.8055 42.5519C43.6851 41.3033 40.4481 44.0773 41.2041 47.3521C41.5978 49.0574 42.6371 50.5436 44.1037 51.4985L55.6254 59.0004Z" fill="#AC2525"/>
<path d="M54.6245 59.0168L40.8112 50.5689C39.5164 49.777 37.9761 49.4879 36.4823 49.7563L35.775 49.8835C32.9215 50.3962 31.5247 53.662 33.1247 56.0796C34.3385 57.9137 36.3913 59.0168 38.5907 59.0168L54.6245 59.0168Z" fill="#AC2525"/>
</g>
<g clip-path="url(#clip2_328_612)">
<path d="M112 4.5C107.827 4.5 104.5 1.33608 104.5 -2.5C104.5 -6.33609 107.827 -9.5 112 -9.5C116.173 -9.5 119.5 -6.33609 119.5 -2.5C119.5 1.33609 116.173 4.5 112 4.5Z" fill="#AC2525" stroke="#AC2525"/>
<path d="M112.375 2L119.202 19.9881C119.641 21.1432 119.726 22.4026 119.446 23.606C117.704 31.092 107.046 31.092 105.304 23.606C105.024 22.4026 105.109 21.1432 105.548 19.9881L112.375 2Z" fill="#AC2525"/>
<path d="M111.568 2.00018L106.164 14.972C105.537 16.4766 104.332 17.6657 102.818 18.2712L102.342 18.4619C99.235 19.7049 96.0125 16.9433 96.7651 13.6831C97.1634 11.9578 98.2252 10.4589 99.7206 9.51093L111.568 2.00018Z" fill="#AC2525"/>
<path d="M110.375 1.98248L96.8746 10.4009C95.5754 11.211 94.0216 11.5097 92.5146 11.2389L91.8298 11.1158C88.9763 10.603 87.5795 7.33729 89.1795 4.91965C90.3933 3.08555 92.4461 1.98248 94.6455 1.98248L110.375 1.98248Z" fill="#AC2525"/>
<path d="M113.375 1.9996L118.433 14.898C119.04 16.446 120.26 17.6742 121.804 18.2919L122.194 18.4481C125.315 19.6967 128.552 16.9227 127.796 13.6479C127.402 11.9426 126.363 10.4564 124.896 9.50147L113.375 1.9996Z" fill="#AC2525"/>
</g>
<g clip-path="url(#clip3_328_612)">
<path d="M4.37114e-08 4.5C-4.17302 4.5 -7.5 1.33608 -7.5 -2.5C-7.5 -6.33609 -4.17302 -9.5 1.26763e-06 -9.5C4.17302 -9.5 7.5 -6.33609 7.5 -2.5C7.5 1.33609 4.17302 4.5 4.37114e-08 4.5Z" fill="#AC2525" stroke="#AC2525"/>
<path d="M0.375001 2L7.20246 19.9881C7.64088 21.1432 7.72551 22.4026 7.44557 23.606C5.70409 31.092 -4.9541 31.092 -6.69558 23.606C-6.97551 22.4026 -6.89088 21.1432 -6.45247 19.9881L0.375001 2Z" fill="#AC2525"/>
<path d="M-0.431519 2.00018L-5.8357 14.972C-6.46253 16.4766 -7.6685 17.6657 -9.18182 18.2712L-9.65847 18.4619C-12.765 19.7049 -15.9875 16.9433 -15.2349 13.6831C-14.8366 11.9578 -13.7748 10.4589 -12.2794 9.51093L-0.431519 2.00018Z" fill="#AC2525"/>
<path d="M1.37463 1.9996L6.43331 14.898C7.04042 16.446 8.26029 17.6742 9.80407 18.2919L10.1945 18.4481C13.3149 19.6967 16.5519 16.9227 15.7959 13.6479C15.4022 11.9426 14.3629 10.4564 12.8963 9.50147L1.37463 1.9996Z" fill="#AC2525"/>
<path d="M2.37549 1.98321L16.1888 10.4311C17.4836 11.223 19.0239 11.5121 20.5177 11.2437L21.225 11.1165C24.0785 10.6038 25.4753 7.33803 23.8753 4.92038C22.6615 3.08628 20.6087 1.98322 18.4093 1.98321L2.37549 1.98321Z" fill="#AC2525"/>
</g>
<circle cx="17.6109" cy="57.8051" r="1.5" transform="rotate(-0.134011 17.6109 57.8051)" fill="#AC2525"/>
<circle cx="23.2535" cy="52.1352" r="1.5" transform="rotate(-0.134011 23.2535 52.1352)" fill="#AC2525"/>
<circle cx="28.898" cy="46.4652" r="1.5" transform="rotate(-0.134011 28.898 46.4652)" fill="#AC2525"/>
<circle cx="34.5406" cy="40.7953" r="1.5" transform="rotate(-0.134011 34.5406 40.7953)" fill="#AC2525"/>
<circle cx="40.1851" cy="35.1254" r="1.5" transform="rotate(-0.134011 40.1851 35.1254)" fill="#AC2525"/>
<circle cx="45.8297" cy="29.4555" r="1.5" transform="rotate(-0.134011 45.8297 29.4555)" fill="#AC2525"/>
<circle cx="51.4723" cy="23.7855" r="1.5" transform="rotate(-0.134011 51.4723 23.7855)" fill="#AC2525"/>
<circle cx="57.1168" cy="18.1156" r="1.5" transform="rotate(-0.134011 57.1168 18.1156)" fill="#AC2525"/>
<circle cx="1.5" cy="1.5" r="1.5" transform="matrix(-1 0.000573998 0.000573998 1 98.1074 56.0742)" fill="#AC2525"/>
<circle cx="1.5" cy="1.5" r="1.5" transform="matrix(-1 0.000573998 0.000573998 1 92.4473 50.4199)" fill="#AC2525"/>
<circle cx="1.5" cy="1.5" r="1.5" transform="matrix(-1 0.000573998 0.000573998 1 86.7871 44.7656)" fill="#AC2525"/>
<circle cx="1.5" cy="1.5" r="1.5" transform="matrix(-1 0.000573998 0.000573998 1 81.127 39.1133)" fill="#AC2525"/>
<circle cx="1.5" cy="1.5" r="1.5" transform="matrix(-1 0.000573998 0.000573998 1 75.4668 33.459)" fill="#AC2525"/>
<circle cx="1.5" cy="1.5" r="1.5" transform="matrix(-1 0.000573998 0.000573998 1 69.8066 27.8047)" fill="#AC2525"/>
<circle cx="1.5" cy="1.5" r="1.5" transform="matrix(-1 0.000573998 0.000573998 1 64.1465 22.1523)" fill="#AC2525"/>
<circle cx="1.5" cy="1.5" r="1.5" transform="matrix(-1 0.000573998 0.000573998 1 58.4863 16.498)" fill="#AC2525"/>
<circle cx="7.61093" cy="37.8051" r="1.5" transform="rotate(-0.134011 7.61093 37.8051)" fill="#AC2525"/>
<circle cx="0.0523323" cy="44.3891" r="1.5" transform="rotate(-0.134011 0.0523323 44.3891)" fill="#AC2525"/>
<circle cx="13.2535" cy="32.1352" r="1.5" transform="rotate(-0.134011 13.2535 32.1352)" fill="#AC2525"/>
<circle cx="18.898" cy="26.4652" r="1.5" transform="rotate(-0.134011 18.898 26.4652)" fill="#AC2525"/>
<circle cx="24.5406" cy="20.7953" r="1.5" transform="rotate(-0.134011 24.5406 20.7953)" fill="#AC2525"/>
<circle cx="30.1851" cy="15.1254" r="1.5" transform="rotate(-0.134011 30.1851 15.1254)" fill="#AC2525"/>
<circle cx="35.8297" cy="9.45547" r="1.5" transform="rotate(-0.134011 35.8297 9.45547)" fill="#AC2525"/>
<circle cx="41.4723" cy="3.78555" r="1.5" transform="rotate(-0.134011 41.4723 3.78555)" fill="#AC2525"/>
<circle cx="1.5" cy="1.5" r="1.5" transform="matrix(-1 0.000573998 0.000573998 1 107.107 36.0742)" fill="#AC2525"/>
<circle cx="1.5" cy="1.5" r="1.5" transform="matrix(-1 0.000573998 0.000573998 1 114.682 42.6406)" fill="#AC2525"/>
<circle cx="1.5" cy="1.5" r="1.5" transform="matrix(-1 0.000573998 0.000573998 1 101.447 30.4199)" fill="#AC2525"/>
<circle cx="1.5" cy="1.5" r="1.5" transform="matrix(-1 0.000573998 0.000573998 1 95.7871 24.7656)" fill="#AC2525"/>
<circle cx="1.5" cy="1.5" r="1.5" transform="matrix(-1 0.000573998 0.000573998 1 90.127 19.1133)" fill="#AC2525"/>
<circle cx="1.5" cy="1.5" r="1.5" transform="matrix(-1 0.000573998 0.000573998 1 84.4668 13.459)" fill="#AC2525"/>
<circle cx="1.5" cy="1.5" r="1.5" transform="matrix(-1 0.000573998 0.000573998 1 78.8066 7.80469)" fill="#AC2525"/>
<circle cx="1.5" cy="1.5" r="1.5" transform="matrix(-1 0.000573998 0.000573998 1 73.1465 2.15234)" fill="#AC2525"/>
</g>
</g>
</pattern><clipPath id="clip0_328_612">
<rect width="113" height="60" fill="white"/>
</clipPath>
<clipPath id="clip1_328_612">
<rect width="55" height="52" fill="white" transform="translate(29 7)"/>
</clipPath>
<clipPath id="clip2_328_612">
<rect width="55" height="52" fill="white" transform="translate(140 54) rotate(-180)"/>
</clipPath>
<clipPath id="clip3_328_612">
<rect width="55" height="52" fill="white" transform="translate(28 54) rotate(-180)"/>
</clipPath>
</defs>
</svg>
