<svg width="238" height="238" viewBox="0 0 238 238" fill="none" xmlns="http://www.w3.org/2000/svg">
  <g fill-opacity="0.95" stroke-opacity="0.95">
    <polygon points="230.25,119.00 228.50,120.75 226.75,119.00 228.50,117.25" fill="none" stroke="#AC2525" stroke-width="0.85"/> <circle cx="228.50" cy="119.00" r="0.55" fill="#AC2525"/> <polygon points="229.64,130.63 227.72,132.19 226.16,130.26 228.08,128.71" fill="none" stroke="#AC2525" stroke-width="0.85"/> <circle cx="227.90" cy="130.45" r="0.55" fill="#AC2525"/> <polygon points="227.82,142.13 225.74,143.48 224.40,141.40 226.47,140.05" fill="none" stroke="#AC2525" stroke-width="0.85"/> <circle cx="226.11" cy="141.77" r="0.55" fill="#AC2525"/> <polygon points="224.81,153.38 222.60,154.50 221.48,152.30 223.68,151.17" fill="none" stroke="#AC2525" stroke-width="0.85"/> <circle cx="223.14" cy="152.84" r="0.55" fill="#AC2525"/> <polygon points="220.63,164.25 218.32,165.14 217.43,162.83 219.75,161.94" fill="none" stroke="#AC2525" stroke-width="0.85"/> <circle cx="219.03" cy="163.54" r="0.55" fill="#AC2525"/> <polygon points="215.35,174.62 212.95,175.27 212.31,172.88 214.70,172.23" fill="none" stroke="#AC2525" stroke-width="0.85"/> <circle cx="213.83" cy="173.75" r="0.55" fill="#AC2525"/> <polygon points="209.00,184.39 206.56,184.78 206.17,182.33 208.62,181.95" fill="none" stroke="#AC2525" stroke-width="0.85"/> <circle cx="207.59" cy="183.36" r="0.55" fill="#AC2525"/> <polygon points="201.67,193.44 199.20,193.57 199.07,191.10 201.55,190.97" fill="none" stroke="#AC2525" stroke-width="0.85"/> <circle cx="200.37" cy="192.27" r="0.55" fill="#AC2525"/> <polygon points="193.44,201.67 190.97,201.55 191.10,199.07 193.57,199.20" fill="none" stroke="#AC2525" stroke-width="0.85"/> <circle cx="192.27" cy="200.37" r="0.55" fill="#AC2525"/> <polygon points="184.39,209.00 181.95,208.62 182.33,206.17 184.78,206.56" fill="none" stroke="#AC2525" stroke-width="0.85"/> <circle cx="183.36" cy="207.59" r="0.55" fill="#AC2525"/> <polygon points="174.62,215.35 172.23,214.70 172.88,212.31 175.27,212.95" fill="none" stroke="#AC2525" stroke-width="0.85"/> <circle cx="173.75" cy="213.83" r="0.55" fill="#AC2525"/> <polygon points="164.25,220.63 161.94,219.75 162.83,217.43 165.14,218.32" fill="none" stroke="#AC2525" stroke-width="0.85"/> <circle cx="163.54" cy="219.03" r="0.55" fill="#AC2525"/> <polygon points="153.38,224.81 151.17,223.68 152.30,221.48 154.50,222.60" fill="none" stroke="#AC2525" stroke-width="0.85"/> <circle cx="152.84" cy="223.14" r="0.55" fill="#AC2525"/> <polygon points="142.13,227.82 140.05,226.47 141.40,224.40 143.48,225.74" fill="none" stroke="#AC2525" stroke-width="0.85"/> <circle cx="141.77" cy="226.11" r="0.55" fill="#AC2525"/> <polygon points="130.63,229.64 128.71,228.08 130.26,226.16 132.19,227.72" fill="none" stroke="#AC2525" stroke-width="0.85"/> <circle cx="130.45" cy="227.90" r="0.55" fill="#AC2525"/> <polygon points="119.00,230.25 117.25,228.50 119.00,226.75 120.75,228.50" fill="none" stroke="#AC2525" stroke-width="0.85"/> <circle cx="119.00" cy="228.50" r="0.55" fill="#AC2525"/> <polygon points="107.37,229.64 105.81,227.72 107.74,226.16 109.29,228.08" fill="none" stroke="#AC2525" stroke-width="0.85"/> <circle cx="107.55" cy="227.90" r="0.55" fill="#AC2525"/> <polygon points="95.87,227.82 94.52,225.74 96.60,224.40 97.95,226.47" fill="none" stroke="#AC2525" stroke-width="0.85"/> <circle cx="96.23" cy="226.11" r="0.55" fill="#AC2525"/> <polygon points="84.62,224.81 83.50,222.60 85.70,221.48 86.83,223.68" fill="none" stroke="#AC2525" stroke-width="0.85"/> <circle cx="85.16" cy="223.14" r="0.55" fill="#AC2525"/> <polygon points="73.75,220.63 72.86,218.32 75.17,217.43 76.06,219.75" fill="none" stroke="#AC2525" stroke-width="0.85"/> <circle cx="74.46" cy="219.03" r="0.55" fill="#AC2525"/> <polygon points="63.38,215.35 62.73,212.95 65.13,212.31 65.77,214.70" fill="none" stroke="#AC2525" stroke-width="0.85"/> <circle cx="64.25" cy="213.83" r="0.55" fill="#AC2525"/> <polygon points="53.61,209.00 53.22,206.56 55.67,206.17 56.05,208.62" fill="none" stroke="#AC2525" stroke-width="0.85"/> <circle cx="54.64" cy="207.59" r="0.55" fill="#AC2525"/> <polygon points="44.56,201.67 44.43,199.20 46.90,199.07 47.03,201.55" fill="none" stroke="#AC2525" stroke-width="0.85"/> <circle cx="45.73" cy="200.37" r="0.55" fill="#AC2525"/> <polygon points="36.33,193.44 36.45,190.97 38.93,191.10 38.80,193.57" fill="none" stroke="#AC2525" stroke-width="0.85"/> <circle cx="37.63" cy="192.27" r="0.55" fill="#AC2525"/> <polygon points="29.00,184.39 29.38,181.95 31.83,182.33 31.44,184.78" fill="none" stroke="#AC2525" stroke-width="0.85"/> <circle cx="30.41" cy="183.36" r="0.55" fill="#AC2525"/> <polygon points="22.65,174.62 23.30,172.23 25.69,172.88 25.05,175.27" fill="none" stroke="#AC2525" stroke-width="0.85"/> <circle cx="24.17" cy="173.75" r="0.55" fill="#AC2525"/> <polygon points="17.37,164.25 18.25,161.94 20.57,162.83 19.68,165.14" fill="none" stroke="#AC2525" stroke-width="0.85"/> <circle cx="18.97" cy="163.54" r="0.55" fill="#AC2525"/> <polygon points="13.19,153.38 14.32,151.17 16.52,152.30 15.40,154.50" fill="none" stroke="#AC2525" stroke-width="0.85"/> <circle cx="14.86" cy="152.84" r="0.55" fill="#AC2525"/> <polygon points="10.18,142.13 11.53,140.05 13.60,141.40 12.26,143.48" fill="none" stroke="#AC2525" stroke-width="0.85"/> <circle cx="11.89" cy="141.77" r="0.55" fill="#AC2525"/> <polygon points="8.36,130.63 9.92,128.71 11.84,130.26 10.28,132.19" fill="none" stroke="#AC2525" stroke-width="0.85"/> <circle cx="10.10" cy="130.45" r="0.55" fill="#AC2525"/> <polygon points="7.75,119.00 9.50,117.25 11.25,119.00 9.50,120.75" fill="none" stroke="#AC2525" stroke-width="0.85"/> <circle cx="9.50" cy="119.00" r="0.55" fill="#AC2525"/> <polygon points="8.36,107.37 10.28,105.81 11.84,107.74 9.92,109.29" fill="none" stroke="#AC2525" stroke-width="0.85"/> <circle cx="10.10" cy="107.55" r="0.55" fill="#AC2525"/> <polygon points="10.18,95.87 12.26,94.52 13.60,96.60 11.53,97.95" fill="none" stroke="#AC2525" stroke-width="0.85"/> <circle cx="11.89" cy="96.23" r="0.55" fill="#AC2525"/> <polygon points="13.19,84.62 15.40,83.50 16.52,85.70 14.32,86.83" fill="none" stroke="#AC2525" stroke-width="0.85"/> <circle cx="14.86" cy="85.16" r="0.55" fill="#AC2525"/> <polygon points="17.37,73.75 19.68,72.86 20.57,75.17 18.25,76.06" fill="none" stroke="#AC2525" stroke-width="0.85"/> <circle cx="18.97" cy="74.46" r="0.55" fill="#AC2525"/> <polygon points="22.65,63.37 25.05,62.73 25.69,65.12 23.30,65.77" fill="none" stroke="#AC2525" stroke-width="0.85"/> <circle cx="24.17" cy="64.25" r="0.55" fill="#AC2525"/> <polygon points="29.00,53.61 31.44,53.22 31.83,55.67 29.38,56.05" fill="none" stroke="#AC2525" stroke-width="0.85"/> <circle cx="30.41" cy="54.64" r="0.55" fill="#AC2525"/> <polygon points="36.33,44.56 38.80,44.43 38.93,46.90 36.45,47.03" fill="none" stroke="#AC2525" stroke-width="0.85"/> <circle cx="37.63" cy="45.73" r="0.55" fill="#AC2525"/> <polygon points="44.56,36.33 47.03,36.45 46.90,38.93 44.43,38.80" fill="none" stroke="#AC2525" stroke-width="0.85"/> <circle cx="45.73" cy="37.63" r="0.55" fill="#AC2525"/> <polygon points="53.61,29.00 56.05,29.38 55.67,31.83 53.22,31.44" fill="none" stroke="#AC2525" stroke-width="0.85"/> <circle cx="54.64" cy="30.41" r="0.55" fill="#AC2525"/> <polygon points="63.37,22.65 65.77,23.30 65.12,25.69 62.73,25.05" fill="none" stroke="#AC2525" stroke-width="0.85"/> <circle cx="64.25" cy="24.17" r="0.55" fill="#AC2525"/> <polygon points="73.75,17.37 76.06,18.25 75.17,20.57 72.86,19.68" fill="none" stroke="#AC2525" stroke-width="0.85"/> <circle cx="74.46" cy="18.97" r="0.55" fill="#AC2525"/> <polygon points="84.62,13.19 86.83,14.32 85.70,16.52 83.50,15.40" fill="none" stroke="#AC2525" stroke-width="0.85"/> <circle cx="85.16" cy="14.86" r="0.55" fill="#AC2525"/> <polygon points="95.87,10.18 97.95,11.53 96.60,13.60 94.52,12.26" fill="none" stroke="#AC2525" stroke-width="0.85"/> <circle cx="96.23" cy="11.89" r="0.55" fill="#AC2525"/> <polygon points="107.37,8.36 109.29,9.92 107.74,11.84 105.81,10.28" fill="none" stroke="#AC2525" stroke-width="0.85"/> <circle cx="107.55" cy="10.10" r="0.55" fill="#AC2525"/> <polygon points="119.00,7.75 120.75,9.50 119.00,11.25 117.25,9.50" fill="none" stroke="#AC2525" stroke-width="0.85"/> <circle cx="119.00" cy="9.50" r="0.55" fill="#AC2525"/> <polygon points="130.63,8.36 132.19,10.28 130.26,11.84 128.71,9.92" fill="none" stroke="#AC2525" stroke-width="0.85"/> <circle cx="130.45" cy="10.10" r="0.55" fill="#AC2525"/> <polygon points="142.13,10.18 143.48,12.26 141.40,13.60 140.05,11.53" fill="none" stroke="#AC2525" stroke-width="0.85"/> <circle cx="141.77" cy="11.89" r="0.55" fill="#AC2525"/> <polygon points="153.38,13.19 154.50,15.40 152.30,16.52 151.17,14.32" fill="none" stroke="#AC2525" stroke-width="0.85"/> <circle cx="152.84" cy="14.86" r="0.55" fill="#AC2525"/> <polygon points="164.25,17.37 165.14,19.68 162.83,20.57 161.94,18.25" fill="none" stroke="#AC2525" stroke-width="0.85"/> <circle cx="163.54" cy="18.97" r="0.55" fill="#AC2525"/> <polygon points="174.62,22.65 175.27,25.05 172.88,25.69 172.23,23.30" fill="none" stroke="#AC2525" stroke-width="0.85"/> <circle cx="173.75" cy="24.17" r="0.55" fill="#AC2525"/> <polygon points="184.39,29.00 184.78,31.44 182.33,31.83 181.95,29.38" fill="none" stroke="#AC2525" stroke-width="0.85"/> <circle cx="183.36" cy="30.41" r="0.55" fill="#AC2525"/> <polygon points="193.44,36.33 193.57,38.80 191.10,38.93 190.97,36.45" fill="none" stroke="#AC2525" stroke-width="0.85"/> <circle cx="192.27" cy="37.63" r="0.55" fill="#AC2525"/> <polygon points="201.67,44.56 201.55,47.03 199.07,46.90 199.20,44.43" fill="none" stroke="#AC2525" stroke-width="0.85"/> <circle cx="200.37" cy="45.73" r="0.55" fill="#AC2525"/> <polygon points="209.00,53.61 208.62,56.05 206.17,55.67 206.56,53.22" fill="none" stroke="#AC2525" stroke-width="0.85"/> <circle cx="207.59" cy="54.64" r="0.55" fill="#AC2525"/> <polygon points="215.35,63.37 214.70,65.77 212.31,65.12 212.95,62.73" fill="none" stroke="#AC2525" stroke-width="0.85"/> <circle cx="213.83" cy="64.25" r="0.55" fill="#AC2525"/> <polygon points="220.63,73.75 219.75,76.06 217.43,75.17 218.32,72.86" fill="none" stroke="#AC2525" stroke-width="0.85"/> <circle cx="219.03" cy="74.46" r="0.55" fill="#AC2525"/> <polygon points="224.81,84.62 223.68,86.83 221.48,85.70 222.60,83.50" fill="none" stroke="#AC2525" stroke-width="0.85"/> <circle cx="223.14" cy="85.16" r="0.55" fill="#AC2525"/> <polygon points="227.82,95.87 226.47,97.95 224.40,96.60 225.74,94.52" fill="none" stroke="#AC2525" stroke-width="0.85"/> <circle cx="226.11" cy="96.23" r="0.55" fill="#AC2525"/> <polygon points="229.64,107.37 228.08,109.29 226.16,107.74 227.72,105.81" fill="none" stroke="#AC2525" stroke-width="0.85"/> <circle cx="227.90" cy="107.55" r="0.55" fill="#AC2525"/>
  </g>
</svg>